<svg xmlns="http://www.w3.org/2000/svg" width="512" height="512" fill="none" viewBox="0 0 512 512"><rect width="512" height="512" fill="#B23D41" rx="35"/><path fill="#31373D" d="M245.5 406C245.5 417.404 240.97 428.342 232.906 436.406C224.842 444.47 213.904 449 202.5 449H138C126.596 449 115.658 444.47 107.594 436.406C99.5303 428.342 95 417.404 95 406V105C95 93.5957 99.5303 82.6585 107.594 74.5944C115.658 66.5303 126.596 62 138 62H202.5C213.904 62 224.842 66.5303 232.906 74.5944C240.97 82.6585 245.5 93.5957 245.5 105V406Z"/><path fill="#31373D" d="M417 423.444C417 430.222 414.321 436.722 409.552 441.515C404.783 446.308 398.316 449 391.571 449H353.429C346.684 449 340.217 446.308 335.448 441.515C330.679 436.722 328 430.222 328 423.444V244.556C328 237.778 330.679 231.278 335.448 226.485C340.217 221.692 346.684 219 353.429 219H391.571C398.316 219 404.783 221.692 409.552 226.485C414.321 231.278 417 237.778 417 244.556V423.444Z"/><path fill="#99AAB5" d="M378.009 193.535C374.963 188.715 370.128 185.301 364.565 184.045C359.003 182.79 353.17 183.795 348.349 186.841L339.261 192.582C334.44 195.627 331.026 200.463 329.771 206.025C328.515 211.587 329.52 217.42 332.566 222.241C335.611 227.062 340.447 230.476 346.009 231.731C351.571 232.987 357.404 231.981 362.225 228.936L371.314 223.195C376.135 220.15 379.548 215.314 380.804 209.752C382.059 204.189 381.054 198.356 378.009 193.535Z"/><path fill="#CCD6DD" d="M141.588 342.618C103.542 282.388 121.528 202.708 181.758 164.662C241.997 126.61 321.668 144.602 359.714 204.832C397.76 265.061 379.784 344.736 319.545 382.788C259.315 420.834 179.635 402.848 141.588 342.618Z"/><path fill="#F5F8FA" d="M177.943 319.654C165.761 300.37 161.74 277.038 166.762 254.789C171.784 232.54 185.439 213.197 204.722 201.016C224.006 188.835 247.338 184.813 269.587 189.836C291.836 194.858 311.179 208.512 323.36 227.796C335.541 247.08 339.563 270.412 334.541 292.661C329.518 314.91 315.864 334.252 296.58 346.433C277.297 358.615 253.964 362.636 231.715 357.614C209.466 352.592 190.124 338.937 177.943 319.654Z"/><path fill="#66757F" d="M302.75 311C300.803 310.997 298.893 310.466 297.225 309.463L243.475 277.213C241.882 276.259 240.565 274.909 239.649 273.294C238.733 271.68 238.251 269.856 238.25 268V192.75C238.25 189.899 239.383 187.165 241.399 185.149C243.415 183.133 246.149 182 249 182C251.851 182 254.585 183.133 256.601 185.149C258.617 187.165 259.75 189.899 259.75 192.75V261.916L308.297 291.027C310.317 292.236 311.884 294.074 312.758 296.26C313.631 298.446 313.763 300.858 313.133 303.127C312.503 305.395 311.146 307.394 309.271 308.816C307.395 310.238 305.104 311.006 302.75 311Z"/></svg>